<?xml version="1.0" encoding="utf-8"?>
<!-- Generator: Adobe Illustrator 20.0.0, SVG Export Plug-In . SVG Version: 6.00 Build 0)  -->
<svg version="1.1" id="Layer_1" xmlns="http://www.w3.org/2000/svg" xmlns:xlink="http://www.w3.org/1999/xlink" x="0px" y="0px"
	 viewBox="0 0 1280 1280" style="enable-background:new 0 0 1280 1280;" xml:space="preserve">
<style type="text/css">
	.st0{opacity:0.65;fill:#FFFFFF;}
	.st1{fill:#FFFFFF;}
</style>
<polygon class="st0" points="1143.4,1093.3 1143.4,289.3 964.3,424.9 "/>
<path class="st0" d="M1132.6,153.5H905.7c-7.1,0-12.3,6.7-10.4,13.6l62.5,233.4l181.3-137.3c2.7-2,4.3-5.2,4.3-8.6v-90.3
	C1143.4,158.4,1138.5,153.5,1132.6,153.5z"/>
<path class="st1" d="M877.4,1123.7h236.8c7.2,0,12.4-6.8,10.5-13.7L945.1,439.5l-74.3,56.2c-2.7,2.1-4.3,5.3-4.3,8.7v608.4
	C866.5,1118.8,871.4,1123.7,877.4,1123.7z"/>
<polygon class="st1" points="868.5,153.5 866.5,153.5 866.5,469.6 938.6,415.1 "/>
<polygon class="st1" points="136.6,1096 136.6,292.1 315.7,427.7 "/>
<path class="st1" d="M147.6,156.3h226.5c7.2,0,12.4,6.8,10.6,13.8l-62.5,233.2L141,266.1c-2.7-2.1-4.3-5.3-4.3-8.7v-90.1
	C136.6,161.2,141.5,156.3,147.6,156.3z"/>
<path class="st1" d="M402.8,1126.5H165.5c-7,0-12.2-6.7-10.3-13.5l179.7-670.7l74.4,56.3c2.7,2,4.2,5.2,4.2,8.5v608.7
	C413.5,1121.7,408.7,1126.5,402.8,1126.5z"/>
<polygon class="st1" points="411.5,156.3 413.5,156.3 413.5,472.4 341.4,417.8 "/>
<polygon class="st1" points="413.5,153.5 413.5,470.6 413.5,470.6 413.5,153.5 "/>
<path class="st1" d="M825.1,168.2L668.3,300.5c-5,4.2-5,11.9,0,16.1l156.8,132.9c6.8,5.8,17.3,0.9,17.3-8V176.2
	C842.5,167.2,832,162.4,825.1,168.2z"/>
<path class="st1" d="M640,324.3L455.3,168.6c-7-5.9-17.8-0.9-17.8,8.3v306.5c0,3.4,1.6,6.6,4.3,8.6l191.6,144.5
	c3.9,2.9,9.2,2.9,13,0l180.8-136.3c5.5-4.2,5.8-12.4,0.5-16.9l-187.7-159L640,324.3z"/>
</svg>
